STARTFONT 2.1
FONT -Monotype-Century Gothic-Bold-I-Normal--17-120-100-100-P-89-iso8859-4
SIZE 12 100 100
FONTBOUNDINGBOX 24 19 -3 -3

STARTPROPERTIES 24
FOUNDRY "Monotype"
FAMILY_NAME "Century Gothic"
WEIGHT_NAME "Bold"
SLANT "I"
SETWIDTH_NAME "Normal"
ADD_STYLE_NAME ""
PIXEL_SIZE 17
POINT_SIZE 120
RESOLUTION_X 100
RESOLUTION_Y 100
SPACING "P"
AVERAGE_WIDTH 89
CHARSET_REGISTRY "iso8859"
CHARSET_ENCODING "4"
FACE_NAME "Century Gothic Bold Italic ISO Latin4"
_DEC_DEVICE_FONTNAMES "PS=centurygothic-bit-lat4"
COPYRIGHT "Copyright (c) 1994 Monotype Typography Ltd."
CAP_HEIGHT 13
X_HEIGHT 10
WEIGHT 10
QUAD_WIDTH 11
DEFAULT_CHAR 160
FONT_DESCENT 3
FONT_ASCENT 16
ENDPROPERTIES

CHARS 191

STARTCHAR space
ENCODING 32
SWIDTH 280 0
DWIDTH 5 0
BBX 0 0 0 0
BITMAP
ENDCHAR

STARTCHAR exclam
ENCODING 33
SWIDTH 280 0
DWIDTH 5 0
BBX 6 13 0 0
BITMAP
0C
0C
0C
18
18
18
30
30
30
00
60
E0
40
ENDCHAR

STARTCHAR quotedbl
ENCODING 34
SWIDTH 360 0
DWIDTH 6 0
BBX 5 4 1 9
BITMAP
D8
D8
D8
50
ENDCHAR

STARTCHAR numbersign
ENCODING 35
SWIDTH 600 0
DWIDTH 10 0
BBX 10 13 0 0
BITMAP
1980
1980
1980
1980
7FC0
7FC0
3300
FF80
FF80
6600
6600
6600
6600
ENDCHAR

STARTCHAR dollar
ENCODING 36
SWIDTH 560 0
DWIDTH 10 0
BBX 9 16 1 -2
BITMAP
0600
0F00
1F80
3980
3000
3800
1C00
0E00
0700
0300
C300
E700
7E00
3C00
1800
1800
ENDCHAR

STARTCHAR percent
ENCODING 37
SWIDTH 860 0
DWIDTH 15 0
BBX 14 13 1 0
BITMAP
3878
7FB0
CC60
CCC0
F980
7180
0300
0638
0C7C
0CCC
18CC
30F8
6070
ENDCHAR

STARTCHAR ampersand
ENCODING 38
SWIDTH 680 0
DWIDTH 12 0
BBX 10 12 1 0
BITMAP
1E00
3F00
3300
3300
1E00
3C00
7C00
EE80
C780
CF00
FF80
79C0
ENDCHAR

STARTCHAR quoteright
ENCODING 39
SWIDTH 280 0
DWIDTH 5 0
BBX 3 4 1 9
BITMAP
60
60
60
C0
ENDCHAR

STARTCHAR parenleft
ENCODING 40
SWIDTH 380 0
DWIDTH 6 0
BBX 5 17 1 -3
BITMAP
18
18
30
30
60
60
60
C0
C0
C0
C0
C0
C0
C0
60
60
30
ENDCHAR

STARTCHAR parenright
ENCODING 41
SWIDTH 380 0
DWIDTH 6 0
BBX 5 17 1 -3
BITMAP
60
30
30
18
18
18
18
18
18
18
30
30
30
60
60
C0
C0
ENDCHAR

STARTCHAR asterisk
ENCODING 42
SWIDTH 440 0
DWIDTH 7 0
BBX 7 6 0 7
BITMAP
50
76
3C
78
DC
14
ENDCHAR

STARTCHAR plus
ENCODING 43
SWIDTH 600 0
DWIDTH 10 0
BBX 8 8 1 2
BITMAP
18
18
18
FF
FF
18
18
18
ENDCHAR

STARTCHAR comma
ENCODING 44
SWIDTH 280 0
DWIDTH 5 0
BBX 4 4 1 -1
BITMAP
20
70
60
C0
ENDCHAR

STARTCHAR minus
ENCODING 45
SWIDTH 600 0
DWIDTH 10 0
BBX 8 2 1 5
BITMAP
FF
FF
ENDCHAR

STARTCHAR period
ENCODING 46
SWIDTH 280 0
DWIDTH 5 0
BBX 3 3 1 0
BITMAP
60
E0
40
ENDCHAR

STARTCHAR slash
ENCODING 47
SWIDTH 460 0
DWIDTH 8 0
BBX 7 15 1 -2
BITMAP
06
06
04
0C
0C
18
18
10
30
30
20
60
40
C0
C0
ENDCHAR

STARTCHAR zero
ENCODING 48
SWIDTH 560 0
DWIDTH 10 0
BBX 8 13 1 0
BITMAP
1C
3E
77
63
E3
C3
C3
C3
C7
C6
EE
7C
38
ENDCHAR

STARTCHAR one
ENCODING 49
SWIDTH 560 0
DWIDTH 10 0
BBX 6 13 2 0
BITMAP
7C
FC
0C
18
18
18
18
30
30
30
60
60
60
ENDCHAR

STARTCHAR two
ENCODING 50
SWIDTH 560 0
DWIDTH 10 0
BBX 8 13 1 0
BITMAP
1C
3E
77
63
03
07
0E
0C
1C
38
70
FE
FE
ENDCHAR

STARTCHAR three
ENCODING 51
SWIDTH 560 0
DWIDTH 10 0
BBX 8 13 1 0
BITMAP
1E
3F
73
63
06
0C
0E
07
03
C3
E7
7E
3C
ENDCHAR

STARTCHAR four
ENCODING 52
SWIDTH 560 0
DWIDTH 10 0
BBX 9 13 1 0
BITMAP
0380
0780
0D80
0D80
1980
3300
3300
6300
FF80
FF80
0600
0600
0600
ENDCHAR

STARTCHAR five
ENCODING 53
SWIDTH 560 0
DWIDTH 10 0
BBX 9 13 1 0
BITMAP
1F80
3F80
3000
3000
3600
7F00
7980
6180
0180
C300
E700
7E00
3800
ENDCHAR

STARTCHAR six
ENCODING 54
SWIDTH 560 0
DWIDTH 10 0
BBX 8 13 1 0
BITMAP
04
0E
1C
38
30
7C
7E
E7
C3
C3
E7
7E
3C
ENDCHAR

STARTCHAR seven
ENCODING 55
SWIDTH 560 0
DWIDTH 10 0
BBX 9 13 1 0
BITMAP
7F80
7F80
0300
0600
0C00
0C00
1800
1800
3000
3000
6000
C000
C000
ENDCHAR

STARTCHAR eight
ENCODING 56
SWIDTH 560 0
DWIDTH 10 0
BBX 8 13 1 0
BITMAP
3E
7F
63
63
36
1C
7E
E7
C3
C3
C7
FE
7C
ENDCHAR

STARTCHAR nine
ENCODING 57
SWIDTH 560 0
DWIDTH 10 0
BBX 8 13 1 0
BITMAP
3C
7E
E7
C3
C3
E7
7E
3E
0C
1C
38
70
20
ENDCHAR

STARTCHAR colon
ENCODING 58
SWIDTH 280 0
DWIDTH 5 0
BBX 4 9 1 0
BITMAP
30
70
20
00
00
00
60
E0
40
ENDCHAR

STARTCHAR semicolon
ENCODING 59
SWIDTH 280 0
DWIDTH 5 0
BBX 5 11 0 -2
BITMAP
18
38
10
00
00
00
00
30
70
60
C0
ENDCHAR

STARTCHAR less
ENCODING 60
SWIDTH 600 0
DWIDTH 10 0
BBX 9 10 1 1
BITMAP
0180
0780
1E00
7800
E000
E000
7800
1E00
0700
0300
ENDCHAR

STARTCHAR equal
ENCODING 61
SWIDTH 600 0
DWIDTH 10 0
BBX 8 6 1 3
BITMAP
FF
FF
00
00
FF
FF
ENDCHAR

STARTCHAR greater
ENCODING 62
SWIDTH 600 0
DWIDTH 10 0
BBX 9 10 1 1
BITMAP
6000
7000
3C00
0F00
0380
0380
0F00
3C00
F000
C000
ENDCHAR

STARTCHAR question
ENCODING 63
SWIDTH 560 0
DWIDTH 10 0
BBX 8 13 1 0
BITMAP
3E
7F
E7
C3
07
1E
38
30
30
00
30
70
20
ENDCHAR

STARTCHAR at
ENCODING 64
SWIDTH 740 0
DWIDTH 13 0
BBX 12 13 1 0
BITMAP
1F80
30C0
4020
CEB0
9F90
B990
B190
B9B0
9FE0
CD80
4060
30C0
1F80
ENDCHAR

STARTCHAR A
ENCODING 65
SWIDTH 740 0
DWIDTH 13 0
BBX 11 12 0 0
BITMAP
0180
0380
07C0
06C0
0CC0
1CC0
18C0
3FC0
7FE0
6060
E060
C060
ENDCHAR

STARTCHAR B
ENCODING 66
SWIDTH 580 0
DWIDTH 10 0
BBX 10 12 0 0
BITMAP
1F80
1FC0
18C0
30C0
3180
3F80
7F00
6180
6180
C380
FF00
FE00
ENDCHAR

STARTCHAR C
ENCODING 67
SWIDTH 780 0
DWIDTH 13 0
BBX 11 12 1 0
BITMAP
07C0
1FE0
3860
7000
6000
C000
C000
C000
E000
70C0
7FC0
1F80
ENDCHAR

STARTCHAR D
ENCODING 68
SWIDTH 700 0
DWIDTH 12 0
BBX 12 12 0 0
BITMAP
1F80
1FE0
18E0
3070
3030
3030
6030
6060
60E0
C1C0
FF80
FE00
ENDCHAR

STARTCHAR E
ENCODING 69
SWIDTH 520 0
DWIDTH 9 0
BBX 10 12 0 0
BITMAP
1FC0
1FC0
1800
3000
3000
3F00
7F00
6000
6000
C000
FE00
FE00
ENDCHAR

STARTCHAR F
ENCODING 70
SWIDTH 480 0
DWIDTH 8 0
BBX 9 12 0 0
BITMAP
1F80
1F80
1800
3000
3000
3F00
7F00
6000
6000
C000
C000
C000
ENDCHAR

STARTCHAR G
ENCODING 71
SWIDTH 840 0
DWIDTH 14 0
BBX 12 12 1 0
BITMAP
07E0
1FF0
3830
7000
6000
C3F0
C3F0
C060
E060
70C0
7FC0
1F00
ENDCHAR

STARTCHAR H
ENCODING 72
SWIDTH 680 0
DWIDTH 12 0
BBX 12 12 0 0
BITMAP
1830
1830
1830
3060
3060
3FE0
7FC0
60C0
60C0
C180
C180
C180
ENDCHAR

STARTCHAR I
ENCODING 73
SWIDTH 280 0
DWIDTH 5 0
BBX 5 12 0 0
BITMAP
18
18
18
30
30
30
60
60
60
C0
C0
C0
ENDCHAR

STARTCHAR J
ENCODING 74
SWIDTH 480 0
DWIDTH 8 0
BBX 9 12 -1 0
BITMAP
0180
0180
0180
0300
0300
0300
0600
0600
0600
CC00
FC00
7800
ENDCHAR

STARTCHAR K
ENCODING 75
SWIDTH 620 0
DWIDTH 11 0
BBX 11 12 0 0
BITMAP
18E0
19C0
1B80
3700
3600
3C00
7C00
6C00
6600
C700
C300
C380
ENDCHAR

STARTCHAR L
ENCODING 76
SWIDTH 440 0
DWIDTH 7 0
BBX 7 12 0 0
BITMAP
18
18
30
30
30
30
60
60
60
C0
FE
FE
ENDCHAR

STARTCHAR M
ENCODING 77
SWIDTH 900 0
DWIDTH 15 0
BBX 14 12 0 0
BITMAP
180C
181C
1C3C
3C3C
346C
346C
66CC
66CC
678C
C38C
C30C
C30C
ENDCHAR

STARTCHAR N
ENCODING 78
SWIDTH 740 0
DWIDTH 12 0
BBX 12 12 0 0
BITMAP
1830
1830
1C30
3C60
3660
3660
6660
63C0
63C0
C3C0
C180
C180
ENDCHAR

STARTCHAR O
ENCODING 79
SWIDTH 840 0
DWIDTH 14 0
BBX 13 12 1 0
BITMAP
07C0
1FF0
3870
7038
6018
C018
C018
C030
E070
70E0
7FC0
1F00
ENDCHAR

STARTCHAR P
ENCODING 80
SWIDTH 560 0
DWIDTH 10 0
BBX 10 12 0 0
BITMAP
1F80
1FC0
18C0
30C0
3180
3F80
7E00
6000
6000
C000
C000
C000
ENDCHAR

STARTCHAR Q
ENCODING 81
SWIDTH 840 0
DWIDTH 14 0
BBX 13 12 1 0
BITMAP
07C0
1FF0
3870
7038
6018
C018
C018
C330
E1F0
70E0
7FF0
1F18
ENDCHAR

STARTCHAR R
ENCODING 82
SWIDTH 580 0
DWIDTH 10 0
BBX 10 12 0 0
BITMAP
1F80
1FC0
18C0
30C0
3180
3F80
7E00
6600
6600
C300
C300
C180
ENDCHAR

STARTCHAR S
ENCODING 83
SWIDTH 520 0
DWIDTH 9 0
BBX 9 12 0 0
BITMAP
0F00
1F80
3980
3000
3800
1C00
0E00
0700
C300
E700
7E00
3C00
ENDCHAR

STARTCHAR T
ENCODING 84
SWIDTH 420 0
DWIDTH 7 0
BBX 8 12 1 0
BITMAP
FF
FF
18
30
30
30
60
60
60
C0
C0
C0
ENDCHAR

STARTCHAR U
ENCODING 85
SWIDTH 640 0
DWIDTH 12 0
BBX 12 12 0 0
BITMAP
1830
1830
3060
3060
3060
60C0
60C0
60C0
C180
C380
FF00
7E00
ENDCHAR

STARTCHAR V
ENCODING 86
SWIDTH 700 0
DWIDTH 12 0
BBX 12 12 1 0
BITMAP
C030
C060
C060
60C0
60C0
6180
6180
3300
3300
3600
1E00
1C00
ENDCHAR

STARTCHAR W
ENCODING 87
SWIDTH 900 0
DWIDTH 15 0
BBX 15 12 1 0
BITMAP
C306
C306
C70C
C78C
CD98
CD98
D8B0
D8B0
F0F0
F0E0
E060
C060
ENDCHAR

STARTCHAR X
ENCODING 88
SWIDTH 680 0
DWIDTH 12 0
BBX 13 12 0 0
BITMAP
3018
3030
1860
18C0
0D80
0700
0600
0F00
1B00
3180
6180
C0C0
ENDCHAR

STARTCHAR Y
ENCODING 89
SWIDTH 620 0
DWIDTH 10 0
BBX 10 12 1 0
BITMAP
C0C0
C180
6300
6300
3600
3C00
1800
1800
3000
3000
3000
3000
ENDCHAR

STARTCHAR Z
ENCODING 90
SWIDTH 500 0
DWIDTH 9 0
BBX 9 12 0 0
BITMAP
3F80
3F80
0300
0600
0600
0C00
1800
3000
3000
6000
FF00
FF00
ENDCHAR

STARTCHAR bracketleft
ENCODING 91
SWIDTH 320 0
DWIDTH 5 0
BBX 7 15 0 -3
BITMAP
1E
1E
18
18
30
30
30
60
60
60
60
C0
C0
F8
F8
ENDCHAR

STARTCHAR backslash
ENCODING 92
SWIDTH 640 0
DWIDTH 11 0
BBX 7 15 2 -2
BITMAP
C0
C0
40
60
60
30
30
10
18
18
08
0C
0C
06
06
ENDCHAR

STARTCHAR bracketright
ENCODING 93
SWIDTH 320 0
DWIDTH 5 0
BBX 7 15 -1 -3
BITMAP
1E
1E
06
06
0C
0C
0C
18
18
18
18
30
30
F0
F0
ENDCHAR

STARTCHAR asciicircum
ENCODING 94
SWIDTH 600 0
DWIDTH 10 0
BBX 8 9 1 4
BITMAP
18
18
3C
3C
66
66
66
C3
C3
ENDCHAR

STARTCHAR underscore
ENCODING 95
SWIDTH 500 0
DWIDTH 9 0
BBX 9 1 0 -2
BITMAP
FF80
ENDCHAR

STARTCHAR quoteleft
ENCODING 96
SWIDTH 280 0
DWIDTH 5 0
BBX 3 4 3 9
BITMAP
60
C0
C0
C0
ENDCHAR

STARTCHAR a
ENCODING 97
SWIDTH 660 0
DWIDTH 11 0
BBX 11 9 1 0
BITMAP
0F60
3FE0
71E0
60C0
C0C0
C0C0
C180
7F80
3D80
ENDCHAR

STARTCHAR b
ENCODING 98
SWIDTH 660 0
DWIDTH 11 0
BBX 10 12 1 0
BITMAP
1800
1800
1800
3700
3F80
30C0
60C0
60C0
6180
E380
FF00
DC00
ENDCHAR

STARTCHAR c
ENCODING 99
SWIDTH 640 0
DWIDTH 10 0
BBX 9 9 1 0
BITMAP
0E00
3F80
7180
6000
C000
C000
C300
7F00
3E00
ENDCHAR

STARTCHAR d
ENCODING 100
SWIDTH 660 0
DWIDTH 11 0
BBX 12 12 1 0
BITMAP
0030
0030
0030
0E60
3F60
71E0
60C0
C0C0
C1C0
C380
7F80
3D80
ENDCHAR

STARTCHAR e
ENCODING 101
SWIDTH 640 0
DWIDTH 10 0
BBX 9 9 1 0
BITMAP
1E00
3F00
6180
7F80
FF80
C000
C300
7F00
3E00
ENDCHAR

STARTCHAR f
ENCODING 102
SWIDTH 280 0
DWIDTH 5 0
BBX 6 12 1 0
BITMAP
1C
3C
30
FC
FC
30
60
60
60
C0
C0
C0
ENDCHAR

STARTCHAR g
ENCODING 103
SWIDTH 660 0
DWIDTH 11 0
BBX 10 12 1 -3
BITMAP
0EC0
3FC0
71C0
60C0
C180
C180
C380
7F80
3D80
C300
FF00
7C00
ENDCHAR

STARTCHAR h
ENCODING 104
SWIDTH 600 0
DWIDTH 10 0
BBX 9 12 1 0
BITMAP
1800
1800
1800
3700
3F80
3180
6180
6180
6300
C300
C300
C300
ENDCHAR

STARTCHAR i
ENCODING 105
SWIDTH 240 0
DWIDTH 5 0
BBX 5 12 1 0
BITMAP
18
18
00
30
30
30
60
60
60
C0
C0
C0
ENDCHAR

STARTCHAR j
ENCODING 106
SWIDTH 260 0
DWIDTH 5 0
BBX 8 15 -2 -3
BITMAP
03
03
00
06
06
06
0C
0C
0C
18
18
18
30
F0
E0
ENDCHAR

STARTCHAR k
ENCODING 107
SWIDTH 580 0
DWIDTH 10 0
BBX 9 12 1 0
BITMAP
1800
1800
1800
3380
3700
3E00
7C00
7800
6C00
C600
C300
C180
ENDCHAR

STARTCHAR l
ENCODING 108
SWIDTH 240 0
DWIDTH 4 0
BBX 5 12 1 0
BITMAP
18
18
18
30
30
30
60
60
60
C0
C0
C0
ENDCHAR

STARTCHAR m
ENCODING 109
SWIDTH 940 0
DWIDTH 16 0
BBX 15 9 1 0
BITMAP
373C
3FFE
31C6
6186
6186
630C
C30C
C30C
C30C
ENDCHAR

STARTCHAR n
ENCODING 110
SWIDTH 600 0
DWIDTH 10 0
BBX 9 9 1 0
BITMAP
3700
3F80
3180
6180
6180
6300
C300
C300
C300
ENDCHAR

STARTCHAR o
ENCODING 111
SWIDTH 640 0
DWIDTH 11 0
BBX 10 9 1 0
BITMAP
0F00
3F80
70C0
60C0
C0C0
C180
C380
7F00
3C00
ENDCHAR

STARTCHAR p
ENCODING 112
SWIDTH 660 0
DWIDTH 11 0
BBX 11 12 0 -3
BITMAP
3780
3FC0
38E0
3060
3060
60C0
71C0
7F80
6E00
C000
C000
C000
ENDCHAR

STARTCHAR q
ENCODING 113
SWIDTH 660 0
DWIDTH 11 0
BBX 11 12 1 -3
BITMAP
0F60
3FE0
70E0
60C0
C0C0
C0C0
C380
7F80
3D80
0300
0300
0300
ENDCHAR

STARTCHAR r
ENCODING 114
SWIDTH 320 0
DWIDTH 6 0
BBX 7 9 1 0
BITMAP
36
3E
38
60
60
60
C0
C0
C0
ENDCHAR

STARTCHAR s
ENCODING 115
SWIDTH 440 0
DWIDTH 7 0
BBX 7 9 1 0
BITMAP
3C
7E
66
70
38
1C
CC
FC
78
ENDCHAR

STARTCHAR t
ENCODING 116
SWIDTH 300 0
DWIDTH 5 0
BBX 6 12 1 0
BITMAP
18
18
18
7C
7C
30
60
60
60
C0
C0
C0
ENDCHAR

STARTCHAR u
ENCODING 117
SWIDTH 600 0
DWIDTH 9 0
BBX 9 9 1 0
BITMAP
3180
3180
6300
6300
6300
C600
CE00
FC00
7800
ENDCHAR

STARTCHAR v
ENCODING 118
SWIDTH 560 0
DWIDTH 9 0
BBX 9 9 1 0
BITMAP
C180
C180
6300
6300
3600
3600
3C00
1C00
1800
ENDCHAR

STARTCHAR w
ENCODING 119
SWIDTH 800 0
DWIDTH 14 0
BBX 14 9 1 0
BITMAP
C18C
C38C
C398
6698
66B0
6CB0
38E0
38E0
30C0
ENDCHAR

STARTCHAR x
ENCODING 120
SWIDTH 560 0
DWIDTH 9 0
BBX 10 9 0 0
BITMAP
30C0
3180
1B00
1E00
0C00
1E00
3600
6300
C300
ENDCHAR

STARTCHAR y
ENCODING 121
SWIDTH 580 0
DWIDTH 9 0
BBX 9 12 1 -3
BITMAP
C180
C180
6300
6300
3600
3600
3C00
1C00
1800
3000
3000
6000
ENDCHAR

STARTCHAR z
ENCODING 122
SWIDTH 460 0
DWIDTH 8 0
BBX 8 9 1 0
BITMAP
3F
3F
06
0C
18
30
60
FE
FE
ENDCHAR

STARTCHAR braceleft
ENCODING 123
SWIDTH 340 0
DWIDTH 6 0
BBX 7 16 1 -3
BITMAP
0E
1E
18
30
30
30
60
C0
E0
60
60
C0
C0
C0
F0
70
ENDCHAR

STARTCHAR bar
ENCODING 124
SWIDTH 600 0
DWIDTH 10 0
BBX 1 16 5 -3
BITMAP
80
80
80
80
80
80
80
80
80
80
80
80
80
80
80
80
ENDCHAR

STARTCHAR braceright
ENCODING 125
SWIDTH 340 0
DWIDTH 6 0
BBX 7 16 -1 -3
BITMAP
1C
1E
06
06
0C
0C
0C
0E
06
0C
18
18
18
30
F0
E0
ENDCHAR

STARTCHAR asciitilde
ENCODING 126
SWIDTH 600 0
DWIDTH 10 0
BBX 8 3 1 5
BITMAP
79
FF
8E
ENDCHAR

STARTCHAR space
ENCODING 160
SWIDTH 280 0
DWIDTH 5 0
BBX 0 0 0 0
BITMAP
ENDCHAR

STARTCHAR Aogonek
ENCODING 161
SWIDTH 740 0
DWIDTH 13 0
BBX 11 15 0 -3
BITMAP
0180
0380
07C0
06C0
0CC0
1CC0
18C0
3FC0
7FE0
6060
E060
C060
00C0
00E0
0060
ENDCHAR

STARTCHAR afii240
ENCODING 162
SWIDTH 556 0
DWIDTH 9 0
BBX 8 9 1 0
BITMAP
33
36
3C
78
78
6C
CC
C6
C6
ENDCHAR

STARTCHAR Rcommaaccent
ENCODING 163
SWIDTH 580 0
DWIDTH 10 0
BBX 10 15 0 -3
BITMAP
1F80
1FC0
18C0
30C0
3180
3F80
7E00
6600
6600
C300
C300
C180
0000
1800
3000
ENDCHAR

STARTCHAR currency
ENCODING 164
SWIDTH 600 0
DWIDTH 10 0
BBX 9 9 1 2
BITMAP
5D00
FF80
6300
C180
C180
C180
6300
FF80
5D00
ENDCHAR

STARTCHAR Itilde
ENCODING 165
SWIDTH 280 0
DWIDTH 5 0
BBX 8 16 0 0
BITMAP
19
3F
26
00
18
18
18
30
30
30
60
60
60
C0
C0
C0
ENDCHAR

STARTCHAR Lcommaaccent
ENCODING 166
SWIDTH 440 0
DWIDTH 7 0
BBX 7 15 0 -3
BITMAP
18
18
30
30
30
30
60
60
60
C0
FE
FE
00
30
60
ENDCHAR

STARTCHAR section
ENCODING 167
SWIDTH 560 0
DWIDTH 10 0
BBX 8 16 1 -3
BITMAP
3C
7E
66
70
38
7C
EE
C7
E3
77
3E
1C
0E
66
7E
3C
ENDCHAR

STARTCHAR hungarumlaut
ENCODING 168
SWIDTH 700 0
DWIDTH 12 0
BBX 8 3 3 12
BITMAP
77
66
CC
ENDCHAR

STARTCHAR Scaron
ENCODING 169
SWIDTH 520 0
DWIDTH 9 0
BBX 10 16 0 0
BITMAP
0CC0
0780
0300
0000
0F00
1F80
3980
3000
3800
1C00
0E00
0700
C300
E700
7E00
3C00
ENDCHAR

STARTCHAR Emacron
ENCODING 170
SWIDTH 520 0
DWIDTH 9 0
BBX 10 15 0 0
BITMAP
0FC0
0FC0
0000
1FC0
1FC0
1800
3000
3000
3F00
7F00
6000
6000
C000
FE00
FE00
ENDCHAR

STARTCHAR Gcommaaccent
ENCODING 171
SWIDTH 840 0
DWIDTH 14 0
BBX 12 15 1 -3
BITMAP
07E0
1FF0
3830
7000
6000
C3F0
C3F0
C060
E060
70C0
7FC0
1F00
0000
0C00
1800
ENDCHAR

STARTCHAR afii237
ENCODING 172
SWIDTH 611 0
DWIDTH 7 0
BBX 9 12 0 0
BITMAP
7F80
7F80
0C00
1800
1800
FE00
FE00
3000
3000
6000
6000
6000
ENDCHAR

STARTCHAR hyphen
ENCODING 173
SWIDTH 420 0
DWIDTH 7 0
BBX 5 2 1 4
BITMAP
F8
F8
ENDCHAR

STARTCHAR Zcaron
ENCODING 174
SWIDTH 500 0
DWIDTH 9 0
BBX 9 16 0 0
BITMAP
1980
0F00
0600
0000
3F80
3F80
0300
0600
0600
0C00
1800
3000
3000
6000
FF00
FF00
ENDCHAR

STARTCHAR macron
ENCODING 175
SWIDTH 420 0
DWIDTH 7 0
BBX 5 2 2 12
BITMAP
F8
F8
ENDCHAR

STARTCHAR degree
ENCODING 176
SWIDTH 400 0
DWIDTH 7 0
BBX 6 6 1 7
BITMAP
78
CC
84
84
CC
78
ENDCHAR

STARTCHAR aogonek
ENCODING 177
SWIDTH 660 0
DWIDTH 11 0
BBX 11 12 1 -3
BITMAP
0F60
3FE0
71E0
60C0
C0C0
C0C0
C180
7F80
3D80
0300
0380
0180
ENDCHAR

STARTCHAR ogonek
ENCODING 178
SWIDTH 340 0
DWIDTH 6 0
BBX 3 4 1 -3
BITMAP
60
C0
C0
60
ENDCHAR

STARTCHAR rcommaaccent
ENCODING 179
SWIDTH 320 0
DWIDTH 6 0
BBX 8 12 0 -3
BITMAP
1B
1F
1C
30
30
30
60
60
60
00
60
C0
ENDCHAR

STARTCHAR acute
ENCODING 180
SWIDTH 420 0
DWIDTH 7 0
BBX 4 3 2 12
BITMAP
70
60
C0
ENDCHAR

STARTCHAR itilde
ENCODING 181
SWIDTH 240 0
DWIDTH 5 0
BBX 7 13 1 0
BITMAP
32
7E
4C
00
30
30
30
60
60
60
C0
C0
C0
ENDCHAR

STARTCHAR lcommaaccent
ENCODING 182
SWIDTH 240 0
DWIDTH 4 0
BBX 6 15 0 -3
BITMAP
0C
0C
0C
18
18
18
30
30
30
60
60
60
00
60
C0
ENDCHAR

STARTCHAR caron
ENCODING 183
SWIDTH 540 0
DWIDTH 9 0
BBX 6 3 2 12
BITMAP
CC
78
30
ENDCHAR

STARTCHAR commaaccent
ENCODING 184
SWIDTH 333 0
DWIDTH 6 0
BBX 3 2 1 -3
BITMAP
60
C0
ENDCHAR

STARTCHAR scaron
ENCODING 185
SWIDTH 440 0
DWIDTH 7 0
BBX 8 13 1 0
BITMAP
33
1E
0C
00
3C
7E
66
70
38
1C
CC
FC
78
ENDCHAR

STARTCHAR emacron
ENCODING 186
SWIDTH 640 0
DWIDTH 10 0
BBX 9 12 1 0
BITMAP
0F80
0F80
0000
1E00
3F00
6180
7F80
FF80
C000
C300
7F00
3E00
ENDCHAR

STARTCHAR gcommaaccent
ENCODING 187
SWIDTH 660 0
DWIDTH 11 0
BBX 10 15 1 -3
BITMAP
0300
0600
0000
0EC0
3FC0
71C0
60C0
C180
C180
C380
7F80
3D80
C300
FF00
7C00
ENDCHAR

STARTCHAR afii253
ENCODING 188
SWIDTH 333 0
DWIDTH 5 0
BBX 6 12 1 0
BITMAP
18
18
18
7C
7C
30
F8
F8
60
C0
C0
C0
ENDCHAR

STARTCHAR afii238
ENCODING 189
SWIDTH 723 0
DWIDTH 12 0
BBX 12 13 0 0
BITMAP
1BC0
1FE0
1C60
3830
3030
3030
3030
6030
6060
6060
C0E0
C7C0
C780
ENDCHAR

STARTCHAR zcaron
ENCODING 190
SWIDTH 460 0
DWIDTH 8 0
BBX 9 13 1 0
BITMAP
1980
0F00
0600
0000
3F00
3F00
0600
0C00
1800
3000
6000
FE00
FE00
ENDCHAR

STARTCHAR afii254
ENCODING 191
SWIDTH 611 0
DWIDTH 10 0
BBX 9 12 1 -3
BITMAP
3700
3F80
3180
6180
6180
6300
C300
C300
C300
0600
1E00
1C00
ENDCHAR

STARTCHAR Amacron
ENCODING 192
SWIDTH 740 0
DWIDTH 13 0
BBX 11 15 0 0
BITMAP
07E0
07E0
0000
0180
0380
07C0
06C0
0CC0
1CC0
18C0
3FC0
7FE0
6060
E060
C060
ENDCHAR

STARTCHAR Aacute
ENCODING 193
SWIDTH 740 0
DWIDTH 13 0
BBX 11 16 0 0
BITMAP
00E0
00C0
0180
0000
0180
0380
07C0
06C0
0CC0
1CC0
18C0
3FC0
7FE0
6060
E060
C060
ENDCHAR

STARTCHAR Acircumflex
ENCODING 194
SWIDTH 740 0
DWIDTH 13 0
BBX 12 16 0 0
BITMAP
00C0
01E0
0330
0000
0180
0380
07C0
06C0
0CC0
1CC0
18C0
3FC0
7FE0
6060
E060
C060
ENDCHAR

STARTCHAR Atilde
ENCODING 195
SWIDTH 740 0
DWIDTH 13 0
BBX 12 16 0 0
BITMAP
0190
03F0
0260
0000
0180
0380
07C0
06C0
0CC0
1CC0
18C0
3FC0
7FE0
6060
E060
C060
ENDCHAR

STARTCHAR Adieresis
ENCODING 196
SWIDTH 740 0
DWIDTH 13 0
BBX 11 15 0 0
BITMAP
0660
0660
0000
0180
0380
07C0
06C0
0CC0
1CC0
18C0
3FC0
7FE0
6060
E060
C060
ENDCHAR

STARTCHAR Aring
ENCODING 197
SWIDTH 740 0
DWIDTH 13 0
BBX 11 15 0 0
BITMAP
01C0
0360
0360
0180
0380
07C0
06C0
0CC0
1CC0
18C0
3FC0
7FE0
6060
E060
C060
ENDCHAR

STARTCHAR AE
ENCODING 198
SWIDTH 900 0
DWIDTH 15 0
BBX 15 13 0 0
BITMAP
01FE
03FE
0360
0760
06C0
0CFC
1CFC
18C0
3FC0
7F80
6180
E1F8
C1F8
ENDCHAR

STARTCHAR Iogonek
ENCODING 199
SWIDTH 280 0
DWIDTH 5 0
BBX 6 15 -1 -3
BITMAP
0C
0C
0C
18
18
18
30
30
30
60
60
60
C0
E0
60
ENDCHAR

STARTCHAR Ccaron
ENCODING 200
SWIDTH 780 0
DWIDTH 13 0
BBX 11 16 1 0
BITMAP
0660
03C0
0180
0000
07C0
1FE0
3860
7000
6000
C000
C000
C000
E000
70C0
7FC0
1F80
ENDCHAR

STARTCHAR Eacute
ENCODING 201
SWIDTH 520 0
DWIDTH 9 0
BBX 10 16 0 0
BITMAP
01C0
0180
0300
0000
1FC0
1FC0
1800
3000
3000
3F00
7F00
6000
6000
C000
FE00
FE00
ENDCHAR

STARTCHAR Eogonek
ENCODING 202
SWIDTH 520 0
DWIDTH 9 0
BBX 10 15 0 -3
BITMAP
1FC0
1FC0
1800
3000
3000
3F00
7F00
6000
6000
C000
FE00
FE00
0C00
0E00
0600
ENDCHAR

STARTCHAR Edieresis
ENCODING 203
SWIDTH 520 0
DWIDTH 9 0
BBX 10 15 0 0
BITMAP
0CC0
0CC0
0000
1FC0
1FC0
1800
3000
3000
3F00
7F00
6000
6000
C000
FE00
FE00
ENDCHAR

STARTCHAR Edotaccent
ENCODING 204
SWIDTH 520 0
DWIDTH 9 0
BBX 10 15 0 0
BITMAP
0300
0300
0000
1FC0
1FC0
1800
3000
3000
3F00
7F00
6000
6000
C000
FE00
FE00
ENDCHAR

STARTCHAR Iacute
ENCODING 205
SWIDTH 280 0
DWIDTH 5 0
BBX 7 16 0 0
BITMAP
0E
0C
18
00
18
18
18
30
30
30
60
60
60
C0
C0
C0
ENDCHAR

STARTCHAR Icircumflex
ENCODING 206
SWIDTH 280 0
DWIDTH 5 0
BBX 8 16 0 0
BITMAP
0C
1E
33
00
18
18
18
30
30
30
60
60
60
C0
C0
C0
ENDCHAR

STARTCHAR Imacron
ENCODING 207
SWIDTH 280 0
DWIDTH 5 0
BBX 7 15 0 0
BITMAP
3E
3E
00
18
18
18
30
30
30
60
60
60
C0
C0
C0
ENDCHAR

STARTCHAR Eth
ENCODING 208
SWIDTH 742 0
DWIDTH 12 0
BBX 12 12 0 0
BITMAP
1F80
1FE0
18E0
3070
3030
FC30
FC30
6060
60E0
C1C0
FF80
FE00
ENDCHAR

STARTCHAR Ncommaaccent
ENCODING 209
SWIDTH 740 0
DWIDTH 12 0
BBX 12 15 0 -3
BITMAP
1830
1830
1C30
3C60
3660
3660
6660
63C0
63C0
C3C0
C180
C180
0000
1800
3000
ENDCHAR

STARTCHAR Omacron
ENCODING 210
SWIDTH 840 0
DWIDTH 14 0
BBX 13 15 1 0
BITMAP
07E0
07E0
0000
07C0
1FF0
3870
7038
6018
C018
C018
C030
E070
70E0
7FC0
1F00
ENDCHAR

STARTCHAR Kcommaaccent
ENCODING 211
SWIDTH 620 0
DWIDTH 11 0
BBX 11 15 0 -3
BITMAP
18E0
19C0
1B80
3700
3600
3C00
7C00
6C00
6600
C700
C300
C380
0000
1800
3000
ENDCHAR

STARTCHAR Ocircumflex
ENCODING 212
SWIDTH 840 0
DWIDTH 14 0
BBX 13 16 1 0
BITMAP
0180
03C0
0660
0000
07C0
1FF0
3870
7038
6018
C018
C018
C030
E070
70E0
7FC0
1F00
ENDCHAR

STARTCHAR Otilde
ENCODING 213
SWIDTH 840 0
DWIDTH 14 0
BBX 13 16 1 0
BITMAP
0320
07E0
04C0
0000
07C0
1FF0
3870
7038
6018
C018
C018
C030
E070
70E0
7FC0
1F00
ENDCHAR

STARTCHAR Odieresis
ENCODING 214
SWIDTH 840 0
DWIDTH 14 0
BBX 13 15 1 0
BITMAP
0660
0660
0000
07C0
1FF0
3870
7038
6018
C018
C018
C030
E070
70E0
7FC0
1F00
ENDCHAR

STARTCHAR multiply
ENCODING 215
SWIDTH 600 0
DWIDTH 10 0
BBX 9 8 1 2
BITMAP
C200
6700
3E00
1C00
3C00
7600
E300
4180
ENDCHAR

STARTCHAR Oslash
ENCODING 216
SWIDTH 840 0
DWIDTH 14 0
BBX 13 12 1 0
BITMAP
07D8
1FF0
3870
70F8
6198
C318
C718
CE30
F870
70E0
FFC0
DF00
ENDCHAR

STARTCHAR Uogonek
ENCODING 217
SWIDTH 640 0
DWIDTH 12 0
BBX 12 15 0 -3
BITMAP
1830
1830
3060
3060
3060
60C0
60C0
60C0
C180
C380
FF00
7E00
0C00
0E00
0600
ENDCHAR

STARTCHAR Uacute
ENCODING 218
SWIDTH 640 0
DWIDTH 12 0
BBX 12 16 0 0
BITMAP
01C0
0180
0300
0000
1830
1830
3060
3060
3060
60C0
60C0
60C0
C180
C380
FF00
7E00
ENDCHAR

STARTCHAR Ucircumflex
ENCODING 219
SWIDTH 640 0
DWIDTH 12 0
BBX 12 16 0 0
BITMAP
0180
03C0
0660
0000
1830
1830
3060
3060
3060
60C0
60C0
60C0
C180
C380
FF00
7E00
ENDCHAR

STARTCHAR Udieresis
ENCODING 220
SWIDTH 640 0
DWIDTH 12 0
BBX 12 15 0 0
BITMAP
0660
0660
0000
1830
1830
3060
3060
3060
60C0
60C0
60C0
C180
C380
FF00
7E00
ENDCHAR

STARTCHAR Utilde
ENCODING 221
SWIDTH 640 0
DWIDTH 12 0
BBX 12 16 0 0
BITMAP
0320
07E0
04C0
0000
1830
1830
3060
3060
3060
60C0
60C0
60C0
C180
C380
FF00
7E00
ENDCHAR

STARTCHAR Umacron
ENCODING 222
SWIDTH 640 0
DWIDTH 12 0
BBX 12 15 0 0
BITMAP
07E0
07E0
0000
1830
1830
3060
3060
3060
60C0
60C0
60C0
C180
C380
FF00
7E00
ENDCHAR

STARTCHAR germandbls
ENCODING 223
SWIDTH 600 0
DWIDTH 10 0
BBX 10 13 0 0
BITMAP
0780
0FC0
18C0
18C0
3180
3300
3380
61C0
60C0
60C0
C1C0
C780
CF00
ENDCHAR

STARTCHAR amacron
ENCODING 224
SWIDTH 660 0
DWIDTH 11 0
BBX 11 12 1 0
BITMAP
0FC0
0FC0
0000
0F60
3FE0
71E0
60C0
C0C0
C0C0
C180
7F80
3D80
ENDCHAR

STARTCHAR aacute
ENCODING 225
SWIDTH 660 0
DWIDTH 11 0
BBX 11 13 1 0
BITMAP
0380
0300
0600
0000
0F60
3FE0
71E0
60C0
C0C0
C0C0
C180
7F80
3D80
ENDCHAR

STARTCHAR acircumflex
ENCODING 226
SWIDTH 660 0
DWIDTH 11 0
BBX 11 13 1 0
BITMAP
0300
0780
0CC0
0000
0F60
3FE0
71E0
60C0
C0C0
C0C0
C180
7F80
3D80
ENDCHAR

STARTCHAR atilde
ENCODING 227
SWIDTH 660 0
DWIDTH 11 0
BBX 11 13 1 0
BITMAP
0640
0FC0
0980
0000
0F60
3FE0
71E0
60C0
C0C0
C0C0
C180
7F80
3D80
ENDCHAR

STARTCHAR adieresis
ENCODING 228
SWIDTH 660 0
DWIDTH 11 0
BBX 11 12 1 0
BITMAP
0CC0
0CC0
0000
0F60
3FE0
71E0
60C0
C0C0
C0C0
C180
7F80
3D80
ENDCHAR

STARTCHAR aring
ENCODING 229
SWIDTH 660 0
DWIDTH 11 0
BBX 11 14 1 0
BITMAP
0600
0900
0900
0600
0000
0F60
3FE0
71E0
60C0
C0C0
C0C0
C180
7F80
3D80
ENDCHAR

STARTCHAR ae
ENCODING 230
SWIDTH 1080 0
DWIDTH 18 0
BBX 17 9 1 0
BITMAP
1EDE00
3FFF00
61E180
60FF80
C0FF80
C1E000
C3B300
7FBF00
3D9E00
ENDCHAR

STARTCHAR iogonek
ENCODING 231
SWIDTH 240 0
DWIDTH 5 0
BBX 6 15 0 -3
BITMAP
0C
0C
00
18
18
18
30
30
30
60
60
60
C0
E0
60
ENDCHAR

STARTCHAR ccaron
ENCODING 232
SWIDTH 640 0
DWIDTH 10 0
BBX 9 13 1 0
BITMAP
1980
0F00
0600
0000
0E00
3F80
7180
6000
C000
C000
C300
7F00
3E00
ENDCHAR

STARTCHAR eacute
ENCODING 233
SWIDTH 640 0
DWIDTH 10 0
BBX 9 13 1 0
BITMAP
0380
0300
0600
0000
1E00
3F00
6180
7F80
FF80
C000
C300
7F00
3E00
ENDCHAR

STARTCHAR eogonek
ENCODING 234
SWIDTH 640 0
DWIDTH 10 0
BBX 9 12 1 -3
BITMAP
1E00
3F00
6180
7F80
FF80
C000
C300
7F00
3E00
0C00
0E00
0600
ENDCHAR

STARTCHAR edieresis
ENCODING 235
SWIDTH 640 0
DWIDTH 10 0
BBX 9 12 1 0
BITMAP
1980
1980
0000
1E00
3F00
6180
7F80
FF80
C000
C300
7F00
3E00
ENDCHAR

STARTCHAR edotaccent
ENCODING 236
SWIDTH 640 0
DWIDTH 10 0
BBX 9 12 1 0
BITMAP
0600
0600
0000
1E00
3F00
6180
7F80
FF80
C000
C300
7F00
3E00
ENDCHAR

STARTCHAR iacute
ENCODING 237
SWIDTH 240 0
DWIDTH 5 0
BBX 6 13 1 0
BITMAP
1C
18
30
00
30
30
30
60
60
60
C0
C0
C0
ENDCHAR

STARTCHAR icircumflex
ENCODING 238
SWIDTH 240 0
DWIDTH 5 0
BBX 7 13 1 0
BITMAP
18
3C
66
00
30
30
30
60
60
60
C0
C0
C0
ENDCHAR

STARTCHAR imacron
ENCODING 239
SWIDTH 240 0
DWIDTH 5 0
BBX 6 12 1 0
BITMAP
7C
7C
00
30
30
30
60
60
60
C0
C0
C0
ENDCHAR

STARTCHAR dcroat
ENCODING 240
SWIDTH 660 0
DWIDTH 11 0
BBX 13 12 1 0
BITMAP
0030
01F8
0030
0E60
3F60
71E0
60C0
C0C0
C1C0
C380
7F80
3D80
ENDCHAR

STARTCHAR ncommaaccent
ENCODING 241
SWIDTH 600 0
DWIDTH 10 0
BBX 9 12 1 -3
BITMAP
3700
3F80
3180
6180
6180
6300
C300
C300
C300
0000
3000
6000
ENDCHAR

STARTCHAR omacron
ENCODING 242
SWIDTH 640 0
DWIDTH 11 0
BBX 10 12 1 0
BITMAP
0FC0
0FC0
0000
0F00
3F80
70C0
60C0
C0C0
C180
C380
7F00
3C00
ENDCHAR

STARTCHAR kcommaaccent
ENCODING 243
SWIDTH 580 0
DWIDTH 10 0
BBX 9 15 1 -3
BITMAP
1800
1800
1800
3380
3700
3E00
7C00
7800
6C00
C600
C300
C180
0000
3000
6000
ENDCHAR

STARTCHAR ocircumflex
ENCODING 244
SWIDTH 640 0
DWIDTH 11 0
BBX 10 13 1 0
BITMAP
0300
0780
0CC0
0000
0F00
3F80
70C0
60C0
C0C0
C180
C380
7F00
3C00
ENDCHAR

STARTCHAR otilde
ENCODING 245
SWIDTH 640 0
DWIDTH 11 0
BBX 10 13 1 0
BITMAP
0640
0FC0
0980
0000
0F00
3F80
70C0
60C0
C0C0
C180
C380
7F00
3C00
ENDCHAR

STARTCHAR odieresis
ENCODING 246
SWIDTH 640 0
DWIDTH 11 0
BBX 10 12 1 0
BITMAP
1980
1980
0000
0F00
3F80
70C0
60C0
C0C0
C180
C380
7F00
3C00
ENDCHAR

STARTCHAR divide
ENCODING 247
SWIDTH 600 0
DWIDTH 10 0
BBX 9 10 1 1
BITMAP
1C00
1C00
1C00
0000
FF80
FF80
0000
1C00
1C00
1C00
ENDCHAR

STARTCHAR oslash
ENCODING 248
SWIDTH 660 0
DWIDTH 11 0
BBX 10 9 1 0
BITMAP
0EC0
3F80
7380
66C0
CCC0
D980
7380
7F00
DC00
ENDCHAR

STARTCHAR uogonek
ENCODING 249
SWIDTH 600 0
DWIDTH 9 0
BBX 9 12 1 -3
BITMAP
3180
3180
6300
6300
6300
C600
CE00
FC00
7800
3000
3800
1800
ENDCHAR

STARTCHAR uacute
ENCODING 250
SWIDTH 600 0
DWIDTH 9 0
BBX 9 13 1 0
BITMAP
0380
0300
0600
0000
3180
3180
6300
6300
6300
C600
CE00
FC00
7800
ENDCHAR

STARTCHAR ucircumflex
ENCODING 251
SWIDTH 600 0
DWIDTH 9 0
BBX 9 13 1 0
BITMAP
0600
0F00
1980
0000
3180
3180
6300
6300
6300
C600
CE00
FC00
7800
ENDCHAR

STARTCHAR udieresis
ENCODING 252
SWIDTH 600 0
DWIDTH 9 0
BBX 9 12 1 0
BITMAP
1980
1980
0000
3180
3180
6300
6300
6300
C600
CE00
FC00
7800
ENDCHAR

STARTCHAR utilde
ENCODING 253
SWIDTH 600 0
DWIDTH 9 0
BBX 10 13 1 0
BITMAP
0640
0FC0
0980
0000
3180
3180
6300
6300
6300
C600
CE00
FC00
7800
ENDCHAR

STARTCHAR umacron
ENCODING 254
SWIDTH 600 0
DWIDTH 9 0
BBX 9 12 1 0
BITMAP
0F80
0F80
0000
3180
3180
6300
6300
6300
C600
CE00
FC00
7800
ENDCHAR

STARTCHAR dotaccent
ENCODING 255
SWIDTH 280 0
DWIDTH 5 0
BBX 2 2 2 12
BITMAP
C0
C0
ENDCHAR
ENDFONT
